<svg width="244" height="244" viewBox="0 0 244 244" fill="none" xmlns="http://www.w3.org/2000/svg">
<mask id="mask0_14_10" style="mask-type:alpha" maskUnits="userSpaceOnUse" x="0" y="0" width="244" height="244">
<path d="M122 0C189.379 0 244 54.6213 244 122C244 189.379 189.379 244 122 244C54.6213 244 0 189.379 0 122C0 54.6213 54.6213 0 122 0ZM122 23C67.3238 23 23 67.3238 23 122C23 176.676 67.3238 221 122 221C176.676 221 221 176.676 221 122C221 67.3238 176.676 23 122 23Z" fill="#909090"/>
</mask>
<g mask="url(#mask0_14_10)">
<rect x="122" y="-65" width="187" height="187" fill="#909090"/>
</g>
</svg>
